<?xml version="1.0" encoding="utf-8"?>
<!-- Generator: Adobe Illustrator 17.0.0, SVG Export Plug-In . SVG Version: 6.00 Build 0)  -->
<!DOCTYPE svg PUBLIC "-//W3C//DTD SVG 1.1//EN" "http://www.w3.org/Graphics/SVG/1.1/DTD/svg11.dtd">
<svg version="1.1" id="Layer_1" xmlns="http://www.w3.org/2000/svg" xmlns:xlink="http://www.w3.org/1999/xlink" x="0px" y="0px"
	 width="99px" height="45px" viewBox="0 0 99 45" enable-background="new 0 0 99 45" xml:space="preserve">
<path fill="#FFFFFF" d="M57.435,19.289c0-2.003,1.624-4.06,4.06-4.06c2.706,0,4.33,2.165,4.33,4.06v16.239h7.849V19.289
	c0-7.578-5.413-11.638-11.638-11.638c-5.954,0-8.39,4.872-8.39,4.872h-0.271c0,0-2.706-4.872-8.39-4.872
	c-5.954,0-11.638,4.06-11.638,11.638v16.239h7.849V19.289c0-1.895,1.624-4.06,4.33-4.06c2.436,0,4.06,2.165,4.06,4.06v16.239h7.849
	V19.289z M0.058,45h7.849V33.579c0,0,3.248,2.761,7.307,2.761c7.849,0,14.29-6.496,14.29-14.344S23.063,7.651,14.673,7.651
	c-7.849,0-14.615,5.954-14.615,14.344V45z M7.907,21.995c0-4.06,3.248-6.766,6.766-6.766s6.766,2.706,6.766,6.766
	s-3.248,6.766-6.766,6.766S7.907,26.055,7.907,21.995L7.907,21.995z M76.38,15.5h5.413v8.119c0,7.849,3.248,12.72,11.096,12.72
	c3.789,0,6.225-1.083,6.225-1.083v-7.632c0,0-1.624,1.137-5.142,1.137c-3.248,0-4.33-2.706-4.33-5.142V15.5h8.119V8.463h-8.119
	V0.343h-1.353L76.38,14.417V15.5z"/>
</svg>
